<svg preserveAspectRatio="none" width="100%" height="100%" overflow="visible" style="display: block;" viewBox="0 0 7.028 8.996" fill="none" xmlns="http://www.w3.org/2000/svg">
<path id="&#226;&#130;&#185;" d="M6.90332 0.125V1.17871H5.35547V2.22461H6.90332V3.2666H5.27734C5.19726 3.78181 5.03685 4.20007 4.78809 4.51367L4.78906 4.51465C4.52958 4.85183 4.15222 5.08683 3.66895 5.22852L3.66992 5.22949C3.22342 5.36266 2.64345 5.42846 1.93457 5.43555V6.26172C1.93457 6.78608 2.04983 7.15641 2.25781 7.39453C2.46307 7.62936 2.77778 7.75676 3.22559 7.75684C3.66626 7.75684 3.97565 7.63442 4.17676 7.40918C4.38025 7.18113 4.49312 6.82615 4.49316 6.32227V6.19727H5.75195L5.75098 6.32324C5.74277 7.14374 5.52452 7.78487 5.07715 8.22363C4.6311 8.66087 4.0036 8.87109 3.21387 8.87109C2.39877 8.87107 1.75778 8.64377 1.31152 8.17188L1.31055 8.1709C0.875042 7.70124 0.665087 7.05134 0.665039 6.23828V4.4209H0.790039C1.69984 4.4209 2.36445 4.39264 2.78809 4.33789L2.94238 4.3125C3.28609 4.24533 3.52634 4.13375 3.67773 3.98926L3.74023 3.91992C3.86101 3.76855 3.95102 3.55359 4.00391 3.2666H0.125V2.22461H4.07324V1.17871H0.125V0.125H6.90332Z" fill="var(--fill-0, #808080)" stroke="var(--stroke-0, #808080)" stroke-width="0.25"/>
</svg>
