<svg width="657" height="201" viewBox="0 0 657 201" fill="none" xmlns="http://www.w3.org/2000/svg">
<g id="Design">
<g id="hero">
<g id="Pop Insights" filter="url(#filter0_d_94_4)">
<path id="Vector" d="M179.553 50.6616C191.576 49.8336 188.241 65.578 185.593 72.3824C191.274 67.7288 194.362 59.8372 200.824 55.23C206.661 51.0683 214.978 49.0112 219.631 55.974C228.966 69.9437 221.945 91.5897 214.911 105.251C208.435 117.945 192.7 131.099 177.464 125.413C174.93 124.468 173.499 122.899 171.919 120.764C170.938 124.154 169.974 127.55 169.027 130.95C168.013 134.826 166.192 141.027 166.385 144.935C166.647 150.254 171.964 149.689 173.162 150.676L173.195 151.231L172.737 151.635C170.768 152.15 148.435 152.118 147.153 151.58L147.099 151.096C147.867 150.174 149.6 149.657 150.77 149.202C153.378 145.298 155.617 139.896 156.505 135.341C158.392 125.66 177.601 63.0391 174.705 57.8919L174.202 57.7668C170.71 58.9324 168.359 66.7586 165.124 69.2623L164.64 69.035C164.604 67.7521 165.28 65.938 165.871 64.7891C168.989 58.7228 172.356 52.2409 179.553 50.6616ZM180.081 123.637C183.596 124.206 186.318 123.611 189.258 121.489C200.333 113.494 208.428 90.8046 210.516 77.7167C211.366 72.3844 212.918 62.8795 209.556 58.2803C208.905 57.3894 207.942 56.7568 206.844 56.6016C206.383 56.5363 205.915 56.5383 205.451 56.5655C199.568 57.9084 195.608 63.714 192.581 68.526C184.938 80.6765 178.463 94.3039 174.95 108.245C174.284 110.89 173.29 114.193 173.905 116.909C174.442 119.279 176.267 121.512 178.31 122.77C178.873 123.117 179.443 123.449 180.081 123.637Z" fill="#FCFBFA"/>
<path id="Vector_2" d="M478.465 34.4779C484.201 33.9414 485.92 36.8388 485.21 42.1739C484.414 48.1782 479.341 54.6006 474.702 58.146C476.681 61.6882 478.678 66.0739 478.767 70.183C479.574 89.3561 458.396 106.422 439.912 102.429C431.209 100.549 418.382 109.963 430.727 111.115C438.14 111.807 448.9 109.471 456.511 110.855C458.689 111.231 460.733 112.167 462.44 113.573C470.202 120.038 466.194 133.487 460.555 140.166C454.651 147.125 446.208 151.437 437.105 152.141C426.736 153.027 410.528 150.123 411.122 136.62C411.276 133.197 411.871 131.701 414.063 129.135C415.166 127.943 418.009 126.851 419.692 127.292C422.16 127.937 422.884 129.397 424.1 131.404C424.319 135.901 423.325 140.165 423.559 145.261C428.266 152.328 440.611 149.855 447.373 146.511C453.941 143.726 461.736 127.275 451.13 125.055C440.969 122.929 415.261 132.291 418.879 111.723C420.127 104.64 427.257 103.167 432.478 100.017C426.091 94.0803 423.006 92.2538 423.518 82.3989C424.446 64.6338 441.397 50.2438 458.848 50.5823C463.975 50.6816 469.229 52.853 472.676 56.6751C473.513 55.1578 474.601 54.0573 475.385 52.4575C476.693 49.7457 474.045 46.9365 473.078 44.3946C471.247 39.582 474.025 36.166 478.465 34.4779ZM447.716 100.308C451.923 99.4035 455.801 94.9967 458.026 91.545C463.253 83.4356 467.365 70.1289 465.241 60.4762C464.709 58.057 463.579 55.6473 461.419 54.2852C459.689 53.1948 457.636 53.0886 455.654 53.3526C451.243 54.0162 447.853 57.0455 445.276 60.5439C439.584 68.272 435.431 81.7181 436.919 91.3463C437.354 94.1604 438.572 97.0931 440.939 98.8188C443.057 100.366 445.196 100.403 447.716 100.308Z" fill="#FCFBFA"/>
<path id="Vector_3" d="M508.113 24.1387C509.323 23.8484 512.74 23.9898 513.69 24.7929C514.172 27.3327 511.835 30.192 511.708 31.511C511.421 34.5228 511.335 35.075 510.459 38.1156L509.737 38.2634C509.888 43.5626 508.947 44.488 507.276 49.2938C507.007 50.0685 506.98 53.5693 506.486 55.1126C505.584 57.9382 504.392 61.0713 503.762 63.9643C503.362 67.2472 501.652 71.1875 501.294 74.3584C500.777 78.9715 499.753 82.0956 497.588 86.2952L497.768 86.6106C498.28 86.3428 498.738 85.5911 498.942 85.0608C501.948 77.1964 505.738 70.0722 510.424 63.0893C511.678 61.2194 515.704 56.7517 515.799 55.3447C516.142 55.7804 516 55.7328 516.467 55.8634C518.127 54.3006 519.168 53.4809 521.017 52.1327C521.109 52.4794 521.121 52.7011 521.393 52.9258C521.65 52.4791 521.786 52.245 521.949 51.7537L521.985 51.6503C523.408 50.7363 525.2 51.4664 527.289 50.8265C527.386 50.3429 527.422 49.9689 527.463 49.4785C528.718 49.0112 530.534 50.5864 531.664 51.0006C532.451 51.2885 534.279 51.6529 534.688 51.8471C537.397 53.1368 538.924 55.1162 538.427 58.1712C538.752 58.4387 539.731 59.0704 539.841 59.4561C541.323 64.6852 539.415 69.8848 538.439 75.0078C538.081 76.8757 538.11 78.5467 536.673 79.62C536.681 79.6147 536.678 82.6827 536.468 83.0714C534.818 86.1167 534.377 90.3044 533.12 93.1637C534.259 94.9012 531.534 96.8974 530.682 99.1226C530.874 99.3 531.073 99.4732 531.271 99.6426C530.576 101.22 530.428 100.08 530.212 100.899C530.076 101.414 530.067 102.68 529.871 103.392C529.07 106.307 528.227 109.174 527.744 112.168C527.54 113.431 527.534 114.751 527.295 115.999C527.224 116.364 526.786 116.953 526.505 117.227L526.431 117.297C526.833 117.957 527.043 118.009 527.771 118.316C530.481 117.464 530.933 111.712 532.989 109.304C533.732 109.623 536.877 108.711 537.974 108.466L538.468 108.799C538.507 108.953 538.56 109.26 538.51 109.415C535.794 117.883 529.209 128.747 518.846 127.457C514.539 126.921 513.53 123.745 511.403 120.735C511.453 119.465 511.169 118.233 511.184 116.944C511.353 103.524 517.734 90.6748 521.023 77.8349C521.946 74.236 526.366 62.3361 523.73 59.3574C522.417 59.1715 520.423 60.6293 519.535 61.5478C512.275 69.0474 507.838 78.7498 502.933 87.8347C502.034 89.5024 501.478 91.4927 500.803 93.2592C500.291 94.608 498.357 95.7715 498.966 97.2415C499.135 97.6089 498.792 98.3299 498.638 98.6784C497.185 101.938 494.863 104.862 494.532 108.5C494.511 108.747 493.123 110.409 492.987 110.865C492.52 112.444 492.088 114.109 491.434 115.627C490.038 118.924 489.112 122.391 487.825 125.735C486.476 126.454 474.096 126.636 472.525 126.254C472.427 125.812 472.196 124.535 472.338 124.139C476.172 113.462 477.841 101.937 480.58 90.9902L489.612 54.9728C490.955 49.5468 494.573 37.6592 494.245 32.296C493.549 32.3102 490.671 32.4235 490.233 32.0408C488.958 30.9301 488.035 28.6882 489.091 27.1757C492.348 26.7896 495.351 26.8745 498.587 26.5165C501.706 26.172 504.655 24.7146 507.743 24.7602L508.113 24.1387ZM504.069 55.9069L504.551 56.3308L504.9 56.1697C505.563 54.9713 505.88 53.2196 505.264 51.9985C504.856 53.2793 504.406 54.6116 504.069 55.9069Z" fill="#EEEEEF" fill-opacity="0.0117647"/>
<path id="Vector_4" d="M496.197 32.7572C493.582 29.9514 492.271 31.5038 490.428 29.238L490.499 28.7388C492.117 27.7981 500.398 28.0184 503.031 27.1857C504.312 26.7809 510.231 25.5811 511.267 25.8241C511.633 27.4642 505.921 48.449 505.264 51.9985C504.856 53.2793 504.406 54.6116 504.069 55.9069C501.043 69.3323 497.41 84.6147 493.428 97.6872C495.792 93.2308 498.297 88.7623 500.593 84.2712C505.314 75.0193 517.328 47.817 531.105 52.18C533.661 52.9858 535.794 54.7718 537.033 57.1466C541.855 66.5874 533.288 85.3765 530.824 95.0029C529.963 98.3715 522.212 118.539 527.132 120.087C530.803 118.999 533.276 111.109 535.554 110.617C537.217 112.833 531.886 119.569 530.395 121.242C522.464 130.125 511.48 126.462 512.802 113.963C514.142 101.299 520.032 88.8536 523.319 76.5597C524.839 70.8739 526.605 66.0663 526.434 60.0391C518.183 47.587 497.496 96.7298 494.889 102.674C491.594 110.182 488.857 117.293 486.843 125.329C484.485 125.355 475.773 125.799 474.326 124.65C475.057 120.052 477.681 111.792 478.894 106.728L491.094 56.8327C492.543 50.9604 495.925 38.329 496.197 32.7572Z" fill="#FCFBFA"/>
<path id="Vector_5" d="M136.859 51.3089C141.902 50.5102 148.428 51.7828 152.307 55.2794C159.296 61.58 159.266 72.033 158.682 80.6851C157.479 98.5197 143.217 125.317 123.345 126.467C119.214 127.342 112.951 126.139 109.475 123.718C105.609 121.028 102.859 116.548 102.156 111.876C99.865 96.6426 104.394 80.3824 112.784 67.6023C118.912 58.4621 126.168 53.2829 136.859 51.3089ZM122.352 123.881C127.182 122.814 130.851 118.524 133.41 114.505C141.181 102.303 148.976 75.5754 145.791 61.4642C145.22 58.9315 144.096 56.0618 141.803 54.6347C140.911 54.0799 139.676 53.7701 138.627 53.9241C132.602 55.4822 128.913 60.3994 125.882 65.5298C118.791 77.5308 111.454 103.87 115.033 117.764C115.567 119.837 116.666 122.005 118.584 123.113C119.78 123.803 120.993 123.955 122.352 123.881Z" fill="#FCFBFA"/>
<path id="Vector_6" d="M60.7966 25.8258C66.2058 25.2503 73.3548 25.8422 78.9466 25.7192C93.9594 25.3888 112.125 24.3576 112.251 44.6556C112.265 54.5078 108.408 63.9722 101.509 71.0113C90.9245 81.6904 81.505 80.727 67.8 80.7793C67.3681 83.0002 66.5694 84.6691 66.1156 86.7315C64.3956 94.5453 61.3086 103.684 60.0082 111.447C55.451 127.13 65.4006 121.078 66.7797 124.441C65.1524 126.218 42.5802 124.569 38.8436 125.182C38.0008 125.32 36.6593 124.988 36 124.288L36.263 123.676C37.1813 122.806 38.8537 122.564 40.1251 122.264C41.9176 120.307 43.4157 118.64 44.3093 116.094C46.3301 110.339 47.5099 104.202 49.1281 98.3038C53.5861 82.1855 57.8093 66.003 61.7959 49.7617C63.2091 43.9186 64.7835 37.9578 65.6443 32.0326C65.9635 29.8348 64.0321 28.4584 62.25 27.8669C60.8182 27.3917 60.6064 27.2856 60.7966 25.8258ZM78.8419 77.4326C86.3894 74.0465 91.0863 66.7911 93.9334 59.2152C97.5031 49.7162 103.365 26.9397 85.8678 28.2826C82.5176 28.6126 81.2289 30.0736 80.2983 33.2708C77.5766 42.6222 75.318 52.107 72.7605 61.504C72.1269 63.8531 68.5674 76.0616 68.434 77.9466C70.1356 79.5381 76.7311 78.0817 78.8419 77.4326Z" fill="#FCFBFA"/>
<path id="Vector_7" d="M298.357 51.2308C301.371 50.9251 304.337 51.386 305.726 54.4469C307.226 58.0068 307.13 64.5525 306.266 68.3128C303.997 78.189 301.24 89.2674 298.039 98.7762C299.715 96.2299 301.321 92.7584 302.673 89.9514C308.326 78.2233 313.706 65.6959 323.048 56.3399C325.554 53.8309 330.381 51.187 334.053 51.4147C351.696 55.2465 339.564 79.9679 336.999 90.1027C335.458 96.198 327.583 116.103 330.763 119.692C334.709 120.498 337.254 111.349 339.904 110.397L340.413 110.677C340.558 111.213 340.715 111.452 340.523 112.001C338.407 118.046 331.452 127.87 323.912 125.906C321.707 125.334 319.82 123.909 318.668 121.945C316.059 117.494 317.547 110.921 318.754 106.273C319.049 104.41 320.576 99.7972 321.161 97.856C324.799 85.7847 331.115 73.0855 331.091 60.3254C330.627 59.4271 330.16 58.3843 329.151 57.9926C328.249 57.6417 327.175 57.8602 326.323 58.256C315.825 63.1342 300.481 100.426 295.944 112.185C294.265 116.538 292.929 121.016 291.35 125.405C287.154 125.284 282.878 125.372 278.625 125.266C280.518 114.585 296.337 65.7955 294.299 59.9426C294.083 59.3234 293.978 59.3021 293.415 59.0328C290.093 59.7298 287.963 67.3364 284.982 69.4632L284.652 69.256C284.558 68.0538 284.88 67.0225 285.289 65.9105C287.976 58.6006 291.296 54.5181 298.357 51.2308Z" fill="#FCFBFA"/>
<path id="Vector_8" d="M265.997 25.601C267.144 25.5272 272.504 25.6847 273.578 25.7833C276.243 26.028 292.538 25.2013 293.488 26.4505C292.625 28.4865 288.572 27.1011 286.443 31.3105C284.272 35.8725 282.948 41.3089 281.688 46.2616C275.811 69.3642 269.254 92.4442 264.561 115.813C262.85 124.337 269.132 122.109 269.663 124.366L269.085 125.206C263.804 125.12 258.521 125.073 253.239 125.065C249.948 125.061 246.329 125.15 243.037 124.868C242.141 124.791 242.144 124.685 241.714 123.977L241.943 123.498C243.374 122.948 244.601 122.621 246.069 122.22C246.782 121.429 247.527 120.634 248.193 119.804C251.109 116.171 271.238 34.2282 270.817 30.9567C270.415 27.8302 267.508 28.6239 265.777 27.1676C265.386 26.8389 265.44 26.6208 265.383 26.14L265.997 25.601Z" fill="#FCFBFA"/>
<path id="Vector_9" d="M374.925 51.3272C380.835 50.7972 387.16 52.1815 391.488 56.5823C395.387 60.5507 395.266 66.6873 391.056 70.4781C389.846 71.5484 388.267 72.1015 386.654 72.0173C379.125 71.5954 377.868 60.5404 384.072 57.2932C384.684 56.9734 385.296 56.0981 385.353 55.3689C385.293 55.3012 385.092 55.0751 385.021 55.0423C379.966 52.6621 372.623 53.3476 369.366 57.8626C360.621 69.983 375.404 82.1196 380.448 92.5376C388.672 109.529 380.181 124.406 361.538 126.425C356.666 126.83 348.723 125.263 344.987 121.645C339.996 116.81 341.514 105.36 349.531 104.98C353.157 104.808 356.352 109.712 356.151 113.1C355.906 117.285 353.554 119.447 350.705 122.11C357.003 125.018 364.582 125.197 368.828 118.838C379.38 102.897 356.897 89.4646 355.373 74.4456C354.009 60.9867 362.109 53.0027 374.925 51.3272Z" fill="#FCFBFA"/>
<path id="Vector_10" d="M601.557 51.3325C601.749 51.2905 601.944 51.2816 602.14 51.2657C606.902 50.8755 612.248 51.9257 615.97 55.1079C618.129 56.9559 619.54 59.5259 619.735 62.3787C619.972 65.8581 618.484 68.3837 616.304 70.9087C615.141 71.3521 613.902 71.6672 612.713 72.0314C610.674 71.5546 609.021 70.8898 607.577 69.2856C606.343 67.9158 605.858 66.081 605.959 64.2658C606.178 60.2882 608.887 57.8534 611.656 55.3943C606.82 53.4114 599.953 52.2967 596.096 56.788C586.845 67.2679 598.359 79.0294 603.988 87.8734C615.76 106.369 608.464 125.059 585.756 126.579C580.585 126.777 572.767 124.909 569.622 120.243C566.042 114.928 568.942 103.664 576.985 105.236C582.834 106.379 583.523 115.712 579.585 119.363C578.861 120.036 577.03 121.363 576.843 122.174C577.828 123.721 584.742 124.538 586.304 124.275C592.404 123.246 597.427 117.677 597.755 111.485C598.539 96.77 583.381 88.9346 581.6 75.2103C579.683 60.7786 587.813 53.0351 601.557 51.3325Z" fill="#FCFBFA"/>
<path id="Vector_11" d="M570.646 34.2196C571.663 34.37 571.545 34.2022 572.237 34.8095C572.681 36.7063 569.137 49.7413 568.51 52.8456L568.723 52.8347C571.489 52.7043 574.417 53.1507 577.219 53.0647C578.488 53.0257 579.618 53.1764 579.659 54.5903C577.663 58.2022 570.362 54.7378 567.699 56.8847C566.057 59.2362 561.507 80.4131 560.117 84.8695C557.502 93.2553 555.437 104.223 553.381 112.94C552.952 114.756 553.292 117.38 554.57 118.912C558.514 120.783 562.919 111.608 564.77 109.254C565.188 108.724 565.637 108.728 566.211 108.722C567.581 110.205 566.368 112.014 565.483 113.445C564.131 115.636 562.729 118.138 560.948 119.991C553.822 129.041 540.663 128.387 540.684 115.556C540.696 107.736 544.136 96.7575 546.089 89.0099C548.813 78.1937 551.278 67.1239 554.254 56.4312C551.718 56.2471 543.84 56.6482 542.654 55.7786L542.598 55.1888C544.172 51.6618 550.434 53.2672 554.866 51.0469C560.62 48.1654 564.262 45.3846 567.359 39.518C568.214 37.8997 569.45 35.4623 570.646 34.2196Z" fill="#FCFBFA"/>
<path id="Vector_12" d="M411.214 51.2043C412.812 51.0012 414.524 51.1513 415.95 51.9548C417.855 53.0293 418.953 55.068 419.246 57.1904C420.255 64.541 416.782 72.8116 414.684 79.7764C412.747 86.2 403.771 114.012 405.271 119.228C405.425 119.761 405.543 119.796 406.002 120.052C409.356 119.329 411.971 112.748 414.959 110.268L415.483 110.604C414.729 117.687 408.208 125.042 400.972 126.182C391.352 125.56 392.038 116.157 393.781 109.312C395.63 102.042 397.792 94.9822 399.99 87.8217C401.546 82.7738 402.957 77.6827 404.224 72.5547C404.916 69.7687 407.54 60.8957 405.132 58.802C401.946 59.0553 398.887 69.3513 396.381 68.831C395.704 66.6584 400.017 59.8449 401.484 57.9856C404.315 54.4029 406.895 52.5593 411.214 51.2043Z" fill="#FCFBFA"/>
<path id="Vector_13" d="M417.35 28.233C427.313 27.449 425.704 41.749 415.015 44.1655C405.043 45.4687 406.38 30.0368 417.35 28.233Z" fill="#FCFBFA"/>
</g>
</g>
</g>
<defs>
<filter id="filter0_d_94_4" x="-10.054" y="-6.18823" width="677.859" height="213" filterUnits="userSpaceOnUse" color-interpolation-filters="sRGB">
<feFlood flood-opacity="0" result="BackgroundImageFix"/>
<feColorMatrix in="SourceAlpha" type="matrix" values="0 0 0 0 0 0 0 0 0 0 0 0 0 0 0 0 0 0 127 0" result="hardAlpha"/>
<feOffset dy="4"/>
<feGaussianBlur stdDeviation="6"/>
<feColorMatrix type="matrix" values="0 0 0 0 1 0 0 0 0 1 0 0 0 0 1 0 0 0 0.35 0"/>
<feBlend mode="normal" in2="BackgroundImageFix" result="effect1_dropShadow_94_4"/>
<feBlend mode="normal" in="SourceGraphic" in2="effect1_dropShadow_94_4" result="shape"/>
</filter>
</defs>
</svg>
