<svg preserveAspectRatio="xMidYMid meet" overflow="visible" style="display: block;" viewBox="0 0 193.017 20.2545" fill="none" xmlns="http://www.w3.org/2000/svg">
<g id="what more?">
<path id="Vector" d="M54.6104 1.21895L55.0141 0.979203C54.9322 0.789281 54.9314 0.749037 54.7678 0.635391C56.7791 -0.33798 58.4901 -0.317667 59.8056 1.57848L60.2635 1.64747C59.9329 2.08289 59.2619 2.22701 59.1252 2.71858C58.2958 5.70309 58.4554 12.515 58.6272 15.5033C60.6879 11.522 63.5144 6.98808 65.3078 2.82801C65.4236 2.55952 65.27 1.95775 65.1905 1.65552C66.4124 1.38243 68.3314 1.96446 70.1344 1.60052C70.6735 1.41213 70.4745 1.39642 70.9449 1.61547C71.8667 2.9568 71.1222 5.29412 72.5774 6.18853C74.0793 5.77937 74.763 5.99267 75.6628 7.27114C76.6095 7.40069 77.3875 7.50686 78.322 7.72189C75.9966 10.5412 75.2819 13.0566 75.5588 16.649L75.2888 16.5884C74.8702 17.0986 74.4118 17.6948 73.9194 18.1231C71.6849 19.7496 70.4808 17.9305 70.7188 15.6323L70.4873 15.4956C70.7728 14.722 70.9654 12.6332 70.5598 11.9494L70.9349 11.8007C71.1361 10.8296 71.2829 10.2141 71.305 9.21424L71.1579 9.09255C70.9663 9.42812 68.6409 13.9232 68.6454 13.8521C68.4666 16.7845 69.3856 15.8138 67.4658 18.6693C65.0508 19.3376 62.9537 19.4652 63.3069 16.1902C63.4304 15.0449 64.6524 8.42504 65.1734 7.98272C66.4686 9.65158 63.1173 14.6121 63.8784 17.3368C64.4671 14.7948 64.8389 12.2871 65.7316 9.76273C65.9644 9.10424 65.9184 7.96413 66.208 7.04308C65.7132 6.36829 65.6432 5.5837 65.3199 5.39876C64.9396 5.96239 64.7128 6.36964 64.3956 6.97236C63.3447 8.80431 62.2965 11.1433 61.2847 13.0399C60.9616 13.6459 61.5628 14.7133 61.5672 15.3567C61.338 18.7172 57.6973 21.5269 54.4992 19.6545C54.1187 19.4363 53.845 19.0704 53.7434 18.6438C53.6427 18.2095 53.6832 17.0472 53.7417 16.6058C53.7074 16.3124 53.8207 16.1798 53.9488 15.881L53.8786 15.3071C53.5221 14.8766 53.6556 14.9 53.1846 14.812C52.9217 15.2158 52.9201 15.3088 52.9727 15.7896L53.4161 15.9096C54.8142 19.6254 48.7906 20.3792 48.1716 19.8633C45.98 18.0372 46.7736 2.23468 47.7873 0.588629C49.7999 -0.364619 53.6794 0.242324 53.166 3.12372C52.8747 4.75866 53.2189 8.24068 52.7782 9.64545L52.765 9.68626C52.8275 10.3212 52.8011 11.0098 53.519 11.1595C54.5594 9.49807 52.9217 2.56086 54.6104 1.21895Z" fill="var(--fill-0, #FDFDFD)"/>
<path id="Vector_2" d="M53.9488 15.8811L53.8786 15.3071C53.5221 14.8767 53.6556 14.9 53.1846 14.8121C52.9217 15.2159 52.9201 15.3088 52.9727 15.7897L53.4161 15.9096C54.8142 19.6255 48.7906 20.3792 48.1716 19.8633C45.98 18.0373 46.7736 2.23473 47.7873 0.588677C49.7999 -0.364571 53.6794 0.242372 53.166 3.12377C52.8747 4.75871 53.2189 8.24073 52.7782 9.64549L52.765 9.68631C52.3688 9.26565 52.5564 6.40495 52.57 5.63798L52.5335 5.91165L52.4026 5.95036L52.37 6.50786L52.1511 5.99942L52.0921 6.70468C51.8973 6.67919 51.7979 6.68858 51.6581 6.55309C51.5392 9.53721 51.4805 12.5233 51.4819 15.5097L52.2173 15.8362C52.6382 14.975 53.0513 14.2291 53.5225 13.3956L53.8514 13.5302C53.9829 14.1304 54.3039 15.3579 53.9488 15.8811Z" fill="var(--fill-0, #FDFDFD)"/>
<path id="Vector_3" d="M53.9488 15.8811L53.8786 15.3071C53.5221 14.8767 53.6556 14.9 53.1846 14.8121C52.9217 15.2159 52.9201 15.3088 52.9727 15.7897L53.4161 15.9096C54.8142 19.6255 48.7906 20.3792 48.1716 19.8633C45.98 18.0373 46.7736 2.23473 47.7873 0.588677C49.7999 -0.364571 53.6794 0.242372 53.166 3.12377C52.8747 4.75871 53.2189 8.24073 52.7782 9.64549L52.765 9.68631C52.3688 9.26565 52.5564 6.40495 52.57 5.63798C52.5514 4.54502 52.4599 2.55535 52.6413 1.55342C51.7168 1.54844 48.5292 1.46393 47.8141 1.6573C47.9297 2.32442 48.4287 2.11725 48.4514 2.99173C48.5846 8.16771 48.2696 13.3924 48.3242 18.5655L50.6162 18.6036C51.3616 17.5172 51.6892 17.0333 52.2173 15.8362C52.6382 14.975 53.0513 14.2291 53.5225 13.3956L53.8514 13.5302C53.9829 14.1304 54.3039 15.3579 53.9488 15.8811Z" fill="var(--fill-0, #424242)"/>
<path id="Vector_4" d="M52.6412 1.55341C52.4598 2.55533 52.5513 4.545 52.5699 5.63796L52.5335 5.91163L52.4025 5.95035L52.3699 6.50784L52.1511 5.99941L52.092 6.70466C51.8972 6.67917 51.7979 6.68856 51.6581 6.55307L51.6563 5.69526C51.6588 4.13411 51.5023 2.68853 52.6412 1.55341Z" fill="var(--fill-0, #424242)"/>
<path id="Vector_5" d="M64.0879 6.8325C64.5679 5.86526 66.0252 2.73299 67.0753 2.58466C67.4349 3.04882 67.432 3.63622 67.3223 4.22036C66.4315 8.96839 65.028 13.7791 63.9466 18.4884L66.4526 18.5103C67.3641 16.0911 70.4422 8.3373 72.502 7.1673L72.772 7.23553C73.2324 8.66847 71.3105 14.4631 70.7187 15.6323L70.4872 15.4957C70.7728 14.722 70.9653 12.6332 70.5597 11.9494L70.9348 11.8007C71.136 10.8297 71.2829 10.2141 71.305 9.21427L71.1579 9.09258C70.9663 9.42815 68.6409 13.9232 68.6453 13.8521C68.4666 16.7845 69.3855 15.8138 67.4657 18.6693C65.0508 19.3376 62.9536 19.4652 63.3069 16.1902C63.4304 15.0449 64.6523 8.42507 65.1733 7.98276C66.4685 9.65161 63.1172 14.6122 63.8783 17.3368C64.4671 14.7948 64.8389 12.2871 65.7316 9.76277C65.9644 9.10427 65.9184 7.96417 66.2079 7.04311C65.7132 6.36833 65.6432 5.58373 65.3198 5.39879C64.9396 5.96242 64.7127 6.36967 64.3955 6.9724L64.0879 6.8325Z" fill="var(--fill-0, #424242)"/>
<path id="Vector_6" d="M52.765 9.6863C52.8275 10.3212 52.801 11.0098 53.519 11.1595C54.5593 9.49811 52.9216 2.5609 54.6103 1.21899L54.6125 1.44035L54.8276 1.54039C54.8769 2.0471 55.4029 2.3062 55.4194 2.39148C55.7817 4.2585 55.9351 7.56038 55.0226 9.22482L55.6501 9.89213L55.5329 10.1953C54.8006 10.5142 53.9125 12.6099 53.5224 13.3956C53.0513 14.2291 52.6382 14.975 52.2173 15.8362L51.4818 15.5097C51.4805 12.5232 51.5392 9.5372 51.6581 6.55308C51.7979 6.68857 51.8972 6.67918 52.092 6.70467L52.1511 5.99942L52.3699 6.50785L52.4025 5.95036L52.5335 5.91164L52.5699 5.63797C52.5563 6.40494 52.3688 9.26564 52.765 9.6863Z" fill="var(--fill-0, #515051)"/>
<path id="Vector_7" d="M54.6124 1.44031L54.8276 1.54035C54.8769 2.04706 55.4029 2.30616 55.4194 2.39145C55.7816 4.25846 55.9351 7.56034 55.0226 9.22478C54.6316 9.73054 54.5365 9.90666 54.2651 10.4864C54.222 8.71367 54.3338 2.81479 54.6124 1.44031Z" fill="var(--fill-0, #424242)"/>
<path id="Vector_8" d="M55.0227 9.22479L55.6501 9.8921L55.533 10.1953C54.8006 10.5142 53.9125 12.6098 53.5225 13.3956C53.0513 14.2291 52.6382 14.9749 52.2173 15.8362L51.4819 15.5096C52.2137 14.4546 53.6939 11.6472 54.2652 10.4864C54.5366 9.90667 54.6317 9.73055 55.0227 9.22479Z" fill="var(--fill-0, #FDFDFD)"/>
<path id="Vector_9" d="M64.0879 6.83246L64.3955 6.97236C63.3446 8.80431 62.2964 11.1433 61.2847 13.0399C60.9615 13.6459 61.5627 14.7133 61.5671 15.3567C61.338 18.7172 57.6972 21.5269 54.4991 19.6545C54.1187 19.4363 53.845 19.0704 53.7434 18.6438C53.6427 18.2095 53.6831 17.0472 53.7416 16.6058C54.1842 17.5008 54.4186 18.0675 55.3099 18.6156L57.7498 18.5965C59.9252 15.3176 62.0061 10.3683 64.0879 6.83246Z" fill="var(--fill-0, #272626)"/>
<path id="Vector_10" d="M75.6627 7.27118C76.6095 7.40073 77.3875 7.5069 78.322 7.72193C75.9966 10.5412 75.2819 13.0566 75.5588 16.649L75.2888 16.5884C74.8701 17.0986 74.4118 17.6948 73.9193 18.1231L73.6722 17.7404C72.7722 16.3134 75.1467 11.532 75.46 9.72387C75.6447 8.65793 75.6704 8.40572 75.6627 7.27118Z" fill="var(--fill-0, #424242)"/>
<path id="Vector_11" d="M73.6721 17.7404C74.003 17.2011 74.4473 16.2985 74.994 16.0727L75.2888 16.5884C74.8701 17.0986 74.4118 17.6948 73.9193 18.1231L73.6721 17.7404Z" fill="var(--fill-0, #FDFDFD)"/>
<path id="Vector_12" d="M70.1344 1.60052C70.6735 1.41213 70.4744 1.39641 70.9448 1.61546C71.8667 2.9568 71.1222 5.29411 72.5774 6.18853C70.1862 8.68683 69.454 9.76138 68.0139 12.9094C68.3803 11.2328 70.8405 2.68274 70.6677 1.76878L70.1344 1.60052Z" fill="var(--fill-0, #424242)"/>
<path id="Vector_13" d="M53.5225 13.3956C53.9125 12.6099 54.8006 10.5142 55.533 10.1953C55.4889 12.9604 55.4862 15.8677 55.3099 18.6157C54.4186 18.0676 54.1843 17.5009 53.7417 16.6059C53.7073 16.3125 53.8207 16.1798 53.9488 15.8811C54.3039 15.3579 53.9829 14.1304 53.8513 13.5301L53.5225 13.3956Z" fill="var(--fill-0, #4D4D4D)"/>
<path id="Vector_14" d="M54.6104 1.21895L55.014 0.979203C54.9321 0.789281 54.9314 0.749037 54.7678 0.635391C56.7791 -0.33798 58.49 -0.317667 59.8056 1.57848L54.8276 1.54034L54.6125 1.4403L54.6104 1.21895Z" fill="var(--fill-0, #272626)"/>
<path id="Vector_15" d="M87.8638 6.14236C91.6976 5.64331 91.2146 4.25292 93.2958 1.9729C93.1252 3.08866 92.3266 5.49095 92.7627 6.09866C93.4262 6.1849 93.7772 6.10652 94.1799 6.50974C93.9919 6.65137 93.827 6.8089 93.5911 6.81388C93.1386 8.19201 91.1056 14.3285 91.7387 15.4374C91.3294 18.1068 88.791 20.0141 86.7646 17.2762C86.7078 16.9071 86.6727 16.5767 86.637 16.207L86.247 16.2772C85.7307 17.8991 83.5131 19.9796 82.1159 17.9803C81.276 16.7787 81.8058 15.2532 82.1253 13.9427C81.7351 14.6083 81.1335 15.5167 80.9791 16.2459C79.3541 17.8617 76.7659 20.2598 75.5588 16.649C75.2818 13.0566 75.9966 10.5412 78.322 7.7219C78.9619 7.07931 79.7226 6.56954 80.5603 6.2217C82.7915 5.28302 84.6607 5.70598 86.797 6.57816C87.2076 6.32825 87.3753 6.20043 87.8638 6.14236Z" fill="var(--fill-0, #FDFDFD)"/>
<path id="Vector_16" d="M87.8638 6.14236C91.6976 5.64331 91.2146 4.25292 93.2959 1.9729C93.1252 3.08866 92.3266 5.49095 92.7627 6.09866C93.4262 6.1849 93.7772 6.10652 94.1799 6.50974C93.992 6.65137 93.827 6.8089 93.5912 6.81389C93.1386 8.19201 91.1057 14.3285 91.7387 15.4374C91.3295 18.1068 88.791 20.0141 86.7646 17.2762C87.067 14.4245 88.3392 10.923 88.9904 8.08737C89.2967 6.7539 87.9532 6.95168 87.6274 6.47716L87.8638 6.14236Z" fill="var(--fill-0, #FDFDFD)"/>
<path id="Vector_17" d="M91.7387 15.4374C91.246 15.9765 90.3909 17.1866 89.8329 17.406L89.6567 17.1975C89.5462 15.5505 91.5022 8.93792 92.0704 7.07033C92.6055 6.68799 92.8452 6.8162 93.5912 6.8139C93.1386 8.19203 91.1057 14.3285 91.7387 15.4374Z" fill="var(--fill-0, #272626)"/>
<path id="Vector_18" d="M86.797 6.57813C87.2076 6.32823 87.3754 6.2004 87.8638 6.14233L87.6274 6.47714C87.9532 6.95165 89.2967 6.75387 88.9904 8.08735C88.3392 10.9229 87.067 14.4245 86.7646 17.2762C86.7078 16.9071 86.6727 16.5767 86.6371 16.207L86.247 16.2772C85.7954 15.9632 85.2696 17.1237 84.7844 17.5574L84.3976 17.5353C83.7755 16.3295 86.7078 8.93807 86.797 6.57813Z" fill="var(--fill-0, #424242)"/>
<path id="Vector_19" d="M82.1248 6.30027C82.6496 6.27708 84.0359 6.18874 84.0869 6.46873C84.4697 8.57147 80.0696 16.1463 79.2419 17.2513C78.7443 17.6108 78.9111 17.5848 78.3337 17.6538L77.9873 17.3255C77.5396 15.9615 78.4179 13.0847 78.8589 11.689C79.5065 9.64029 80.194 7.46127 82.1248 6.30027Z" fill="var(--fill-0, #272626)"/>
<path id="Vector_20" d="M100.207 5.89436C103.467 5.29489 102.058 9.76273 101.688 11.4283C102.25 10.3488 105.565 4.10917 107.937 6.4555C108.66 7.17091 108.371 9.29723 108.21 10.3373C108.979 8.94747 110.954 5.41294 112.946 6.08504C116.966 7.43979 111.142 15.5273 112.112 17.5054C112.714 17.3648 113.035 16.6946 113.719 16.2316C113.704 16.3241 113.687 16.4161 113.664 16.5071C113.418 17.5198 111.708 19.2429 110.66 18.6936C107.101 16.8255 112.624 9.71885 111.385 7.40626C110.789 7.45704 110.887 7.53677 110.346 8.04559C108.014 11.4914 106.76 14.5794 105.623 18.5482L102.844 18.5397C103.369 16.8328 106.453 8.40741 105.611 7.36217L105.214 7.41105C102.635 9.5205 100.625 15.2084 99.8831 18.4872L96.9509 18.4742C97.8695 14.7101 99.3979 10.6589 99.7987 6.8386C98.9338 8.15042 98.253 9.18665 97.2482 10.4122C97.9098 8.29837 98.3259 7.1575 100.207 5.89436Z" fill="var(--fill-0, #FDFDFD)"/>
<path id="Vector_21" d="M120.498 5.74389C121.277 5.69176 122.053 5.85045 122.748 6.20365C126.265 7.99669 123.616 15.2287 121.315 17.1514C120.151 18.1242 119.733 18.3099 118.335 18.7528C112.793 19.1792 113.951 13.0021 115.575 9.83841C116.749 7.54977 118.074 6.5076 120.498 5.74389Z" fill="var(--fill-0, #FDFDFD)"/>
<path id="Vector_22" d="M120.381 6.2204C120.801 6.26084 121.517 6.23707 121.664 6.61749C122.786 9.49314 120.207 16.6833 118.193 18.2945C117.668 18.3413 117.535 18.3614 117.069 18.0777C115.625 16.1057 118.508 7.8927 120.381 6.2204Z" fill="var(--fill-0, #272626)"/>
<path id="Vector_23" d="M139.161 5.95052C140.308 5.83937 142.926 6.29491 143.108 7.69125C143.501 10.726 138.918 11.5583 136.751 12.0859C136.57 13.1779 136.139 15.5522 136.9 16.4322C139.284 19.1858 140.939 14.8617 142.063 14.1012C141.892 15.8554 140.394 17.6572 138.824 18.2887C133.044 20.6124 133.021 13.8741 134.672 10.4143C135.845 7.94959 136.637 6.95149 139.161 5.95052Z" fill="var(--fill-0, #FDFDFD)"/>
<path id="Vector_24" d="M139.688 6.39227C140.057 6.61688 140.321 6.7909 140.373 7.24337C140.621 9.46072 139.447 10.6926 137.681 11.2633L137.391 11.2057L137.249 10.9109C137.681 9.2547 138.406 7.55691 139.688 6.39227Z" fill="var(--fill-0, #0E0E0D)"/>
<path id="Vector_25" d="M6.03495 2.67163C6.8494 3.27915 7.39267 3.88379 8.09052 4.61492C7.29008 5.51374 6.38359 6.41141 7.20858 7.65539C8.59295 8.40722 9.13336 7.56052 10.0859 6.59942C10.7467 7.17819 11.5032 8.0542 12.1117 8.71864L10.1971 10.8367C9.77924 10.4256 8.67293 9.27767 8.23167 9.31255C5.30604 9.54368 7.455 11.6503 7.88054 12.7681C8.05141 13.2172 6.42636 14.4496 6.04685 14.7438C5.29876 14.0966 4.63198 13.4113 3.9351 12.7108C4.81531 11.9201 5.91971 11.0715 5.04697 9.79052C3.63497 8.95015 3.01384 9.76254 2.04943 10.7614C1.17343 10.0391 0.750391 9.54905 0 8.69143C0.720858 7.78839 1.17151 7.40376 2.04655 6.64158C3.02534 7.63546 3.58742 8.39169 5.00632 7.63009C5.88097 6.30543 4.83448 5.47388 3.9349 4.59365C4.4241 4.07295 5.46885 3.18294 6.03495 2.67163Z" fill="var(--fill-0, #FDFDFD)"/>
<path id="Vector_26" d="M186.86 2.62299C187.412 3.02142 188.471 4.10652 189.002 4.62588C188.152 5.46126 187.345 6.22095 187.884 7.47911C189.238 8.47739 189.968 7.57359 191.035 6.65829L193.017 8.67785L190.996 10.7862C190.104 9.93889 189.199 8.90591 187.901 9.76161C187.27 11.1403 187.985 11.8274 188.954 12.7289C188.294 13.4868 187.629 14.0873 186.894 14.7686C186.415 14.3446 185.395 13.2074 184.909 12.6976C185.794 11.9109 186.714 11.019 185.891 9.77368C184.662 8.87448 183.749 9.95211 182.881 10.757L180.817 8.6905C181.389 8.03124 182.219 7.28689 182.863 6.67477C183.897 7.5987 184.557 8.45995 185.937 7.55557C186.687 6.30815 185.715 5.42159 184.839 4.66153L186.86 2.62299Z" fill="var(--fill-0, #FDFDFD)"/>
<path id="Vector_27" d="M149.653 1.3667C150.5 1.37417 151.866 1.36861 152.489 1.88989C156.867 5.54037 149.804 9.99844 147.446 12.3068C147.006 12.738 146.268 14.3772 145.804 15.0522L145.386 15.046L145.305 14.6254C145.683 13.3289 146.569 12.0822 147.396 11.0329C148.562 9.72151 149.643 8.44381 150.249 6.77285C150.784 5.29775 151.413 2.48131 149.511 1.80499C148.661 1.87399 148.539 2.22393 147.983 2.69098C146.726 3.74733 148.157 4.01218 147.829 5.14117C147.49 5.66954 147.357 5.94992 146.805 6.24275C145.888 6.33742 145.695 6.36617 145.309 5.51833C145.286 3.02578 147.465 1.7383 149.653 1.3667Z" fill="var(--fill-0, #FDFDFD)"/>
<path id="Vector_28" d="M125.916 7.1993C126.752 6.26733 127.417 5.50783 128.664 6.0454C129.793 7.3944 129.366 8.91262 129.061 10.4581L128.733 10.8145C128.779 11.4029 128.733 11.2009 129.082 11.7162C129.022 12.5512 127.039 16.296 127.21 17.6904C127.218 17.7649 127.555 17.9874 127.578 18.42C127.13 18.6201 123.923 18.5394 123.166 18.5369C123.601 18.219 124.159 17.7774 124.357 17.2814C124.945 15.8042 127.341 8.55213 126.681 7.38098L125.916 7.1993Z" fill="var(--fill-0, #FDFDFD)"/>
<path id="Vector_29" d="M70.4872 15.4957L70.7187 15.6323C70.4807 17.9305 71.6848 19.7496 73.9193 18.1231C74.4118 17.6948 74.8701 17.0986 75.2887 16.5884L75.5588 16.649C76.7659 20.2598 79.354 17.8617 80.9791 16.246C80.5073 19.5591 73.1981 19.8217 70.7496 19.5789C70.2746 18.9785 69.1704 17.8152 69.3211 17.0758C70.0548 17.4211 70.0009 19.3226 71.2152 19.2044C71.476 18.2475 69.2194 17.4823 70.4872 15.4957Z" fill="var(--fill-0, #272626)"/>
<path id="Vector_30" d="M131.753 6.49288C136.288 4.28032 135.088 10.9251 132.856 10.1853C132.135 9.43829 132.374 7.97104 132.457 7.02604C132.34 6.91047 131.908 6.60825 131.753 6.49288Z" fill="var(--fill-0, #FDFDFD)"/>
<path id="Vector_31" d="M144.943 16.0303C145.472 16.0744 145.601 16.1515 146.059 16.387C146.855 17.5277 145.911 18.1703 145.014 18.8178C144.485 18.8245 144.373 18.7692 143.906 18.5537C143.138 17.4384 144.086 16.7187 144.943 16.0303Z" fill="var(--fill-0, #FDFDFD)"/>
<path id="Vector_32" d="M129.061 10.458C130.114 8.85317 130.06 8.022 131.753 6.49286C131.908 6.60823 132.34 6.91046 132.457 7.02602C131.345 7.34664 130.875 8.39092 130.321 9.39477C129.901 10.1648 129.488 10.9387 129.082 11.7162C128.733 11.2008 128.779 11.4028 128.733 10.8145L129.061 10.458Z" fill="var(--fill-0, #FDFDFD)"/>
<path id="Vector_33" d="M124.581 10.1698C124.876 9.24223 125.25 7.87617 125.916 7.19928L126.681 7.38096C126.255 7.69679 125.25 9.40034 124.581 10.1698Z" fill="var(--fill-0, #FDFDFD)"/>
</g>
</svg>
